<mxfile host="app.diagrams.net" agent="Mozilla/5.0 (Macintosh; Intel Mac OS X 10_15_7) AppleWebKit/537.36 (KHTML, like Gecko) Chrome/133.0.0.0 Safari/537.36" version="26.1.1">
  <diagram name="Page-1" id="04eZTmSLNJgUhnqo3_pa">
    <mxGraphModel grid="1" page="1" gridSize="10" guides="1" tooltips="1" connect="1" arrows="1" fold="1" pageScale="1" pageWidth="827" pageHeight="1169" math="0" shadow="0">
      <root>
        <mxCell id="0" />
        <mxCell id="1" parent="0" />
        <mxCell id="QvcRcpZz988IZ9j-JeaG-231" value="" style="rounded=0;whiteSpace=wrap;html=1;" vertex="1" parent="1">
          <mxGeometry x="1118.25" y="810" width="1103.5" height="890" as="geometry" />
        </mxCell>
        <mxCell id="QvcRcpZz988IZ9j-JeaG-230" value="" style="rounded=0;whiteSpace=wrap;html=1;" vertex="1" parent="1">
          <mxGeometry x="930" y="50" width="1100" height="670" as="geometry" />
        </mxCell>
        <mxCell id="QvcRcpZz988IZ9j-JeaG-80" value="" style="rounded=0;whiteSpace=wrap;html=1;" vertex="1" parent="1">
          <mxGeometry y="-15" width="820" height="715" as="geometry" />
        </mxCell>
        <mxCell id="QvcRcpZz988IZ9j-JeaG-77" value="" style="rounded=0;whiteSpace=wrap;html=1;" vertex="1" parent="1">
          <mxGeometry x="2198" y="20" width="642" height="480" as="geometry" />
        </mxCell>
        <mxCell id="QvcRcpZz988IZ9j-JeaG-73" value="" style="rounded=0;whiteSpace=wrap;html=1;" vertex="1" parent="1">
          <mxGeometry x="2220" y="60" width="600" height="270" as="geometry" />
        </mxCell>
        <mxCell id="QvcRcpZz988IZ9j-JeaG-71" value="" style="rounded=0;whiteSpace=wrap;html=1;" vertex="1" parent="1">
          <mxGeometry x="2230" y="370" width="570" height="120" as="geometry" />
        </mxCell>
        <mxCell id="bCO52bIQ9dE28dOcg5Y--2" value="Frontend" style="text;strokeColor=none;fillColor=none;align=left;verticalAlign=middle;spacingLeft=4;spacingRight=4;overflow=hidden;points=[[0,0.5],[1,0.5]];portConstraint=eastwest;rotatable=0;whiteSpace=wrap;html=1;" vertex="1" parent="1">
          <mxGeometry x="30" y="30" width="80" height="30" as="geometry" />
        </mxCell>
        <mxCell id="bCO52bIQ9dE28dOcg5Y--3" value="" style="edgeStyle=orthogonalEdgeStyle;rounded=0;orthogonalLoop=1;jettySize=auto;html=1;" edge="1" parent="1" source="bCO52bIQ9dE28dOcg5Y--4" target="bCO52bIQ9dE28dOcg5Y--7">
          <mxGeometry relative="1" as="geometry" />
        </mxCell>
        <mxCell id="bCO52bIQ9dE28dOcg5Y--4" value="Login Page" style="rounded=1;whiteSpace=wrap;html=1;" vertex="1" parent="1">
          <mxGeometry x="40" y="80" width="100" height="60" as="geometry" />
        </mxCell>
        <mxCell id="bCO52bIQ9dE28dOcg5Y--5" style="edgeStyle=orthogonalEdgeStyle;rounded=0;orthogonalLoop=1;jettySize=auto;html=1;entryX=0.25;entryY=1;entryDx=0;entryDy=0;" edge="1" parent="1" source="bCO52bIQ9dE28dOcg5Y--7" target="bCO52bIQ9dE28dOcg5Y--4">
          <mxGeometry relative="1" as="geometry">
            <Array as="points">
              <mxPoint x="210" y="220" />
              <mxPoint x="65" y="220" />
            </Array>
          </mxGeometry>
        </mxCell>
        <mxCell id="bCO52bIQ9dE28dOcg5Y--6" value="" style="edgeStyle=orthogonalEdgeStyle;rounded=0;orthogonalLoop=1;jettySize=auto;html=1;" edge="1" parent="1" source="bCO52bIQ9dE28dOcg5Y--7" target="bCO52bIQ9dE28dOcg5Y--9">
          <mxGeometry relative="1" as="geometry" />
        </mxCell>
        <mxCell id="bCO52bIQ9dE28dOcg5Y--7" value="AWS Cognito" style="shape=cylinder3;whiteSpace=wrap;html=1;boundedLbl=1;backgroundOutline=1;size=15;" vertex="1" parent="1">
          <mxGeometry x="180" y="70" width="60" height="80" as="geometry" />
        </mxCell>
        <mxCell id="bCO52bIQ9dE28dOcg5Y--8" value="" style="edgeStyle=orthogonalEdgeStyle;rounded=0;orthogonalLoop=1;jettySize=auto;html=1;" edge="1" parent="1" source="bCO52bIQ9dE28dOcg5Y--9" target="bCO52bIQ9dE28dOcg5Y--41">
          <mxGeometry relative="1" as="geometry">
            <mxPoint x="580" y="130" as="targetPoint" />
          </mxGeometry>
        </mxCell>
        <mxCell id="bCO52bIQ9dE28dOcg5Y--9" value="Browser Local storage&lt;br&gt;&lt;br&gt;- Encrypted (User id, access token, refresh token, username)" style="rounded=1;whiteSpace=wrap;html=1;" vertex="1" parent="1">
          <mxGeometry x="340" y="80" width="160" height="100" as="geometry" />
        </mxCell>
        <mxCell id="bCO52bIQ9dE28dOcg5Y--10" value="Invalid Credentials" style="text;html=1;align=center;verticalAlign=middle;whiteSpace=wrap;rounded=0;" vertex="1" parent="1">
          <mxGeometry x="100" y="180" width="60" height="30" as="geometry" />
        </mxCell>
        <mxCell id="bCO52bIQ9dE28dOcg5Y--11" value="Valid Credentials" style="text;html=1;align=center;verticalAlign=middle;whiteSpace=wrap;rounded=0;" vertex="1" parent="1">
          <mxGeometry x="250" y="80" width="60" height="30" as="geometry" />
        </mxCell>
        <mxCell id="bCO52bIQ9dE28dOcg5Y--43" style="edgeStyle=orthogonalEdgeStyle;rounded=0;orthogonalLoop=1;jettySize=auto;html=1;" edge="1" parent="1" source="bCO52bIQ9dE28dOcg5Y--41" target="bCO52bIQ9dE28dOcg5Y--44">
          <mxGeometry relative="1" as="geometry">
            <mxPoint x="600" y="230" as="targetPoint" />
          </mxGeometry>
        </mxCell>
        <mxCell id="bCO52bIQ9dE28dOcg5Y--41" value="Create App flow" style="rounded=0;whiteSpace=wrap;html=1;" vertex="1" parent="1">
          <mxGeometry x="540" y="100" width="120" height="60" as="geometry" />
        </mxCell>
        <mxCell id="bCO52bIQ9dE28dOcg5Y--46" style="edgeStyle=orthogonalEdgeStyle;rounded=0;orthogonalLoop=1;jettySize=auto;html=1;" edge="1" parent="1" source="bCO52bIQ9dE28dOcg5Y--44" target="bCO52bIQ9dE28dOcg5Y--47">
          <mxGeometry relative="1" as="geometry">
            <mxPoint x="600" y="460" as="targetPoint" />
          </mxGeometry>
        </mxCell>
        <mxCell id="bCO52bIQ9dE28dOcg5Y--44" value="Enter app data" style="shape=manualInput;whiteSpace=wrap;html=1;" vertex="1" parent="1">
          <mxGeometry x="500" y="230" width="200" height="80" as="geometry" />
        </mxCell>
        <mxCell id="bCO52bIQ9dE28dOcg5Y--45" value="&lt;b&gt;Mandatory Fields&lt;br&gt;&lt;/b&gt;- Project name (alphanumeric and hyphen, max 30 characters, unqiue)&lt;br&gt;- Project description(Alphanumeric, max 60 characters)&lt;br&gt;- Project Category&lt;br&gt;- Permissions&lt;br&gt;&lt;br&gt;&lt;b&gt;Optional Field&lt;br&gt;&lt;/b&gt;-Project blog(joedit content)" style="text;html=1;align=left;verticalAlign=middle;whiteSpace=wrap;rounded=0;" vertex="1" parent="1">
          <mxGeometry x="300" y="200" width="200" height="240" as="geometry" />
        </mxCell>
        <mxCell id="bCO52bIQ9dE28dOcg5Y--50" value="" style="edgeStyle=orthogonalEdgeStyle;rounded=0;orthogonalLoop=1;jettySize=auto;html=1;" edge="1" parent="1" source="bCO52bIQ9dE28dOcg5Y--47" target="bCO52bIQ9dE28dOcg5Y--49">
          <mxGeometry relative="1" as="geometry" />
        </mxCell>
        <mxCell id="bCO52bIQ9dE28dOcg5Y--47" value="App.py" style="rounded=1;whiteSpace=wrap;html=1;" vertex="1" parent="1">
          <mxGeometry x="540" y="460" width="120" height="60" as="geometry" />
        </mxCell>
        <mxCell id="bCO52bIQ9dE28dOcg5Y--48" value="Github URL with github PAT token.&lt;br&gt;- Repo should have single app.py.&lt;br&gt;&lt;div style=&quot;&quot;&gt;&lt;span style=&quot;background-color: initial;&quot;&gt;- Repo should not contain any other file other than app.py&lt;/span&gt;&lt;/div&gt;" style="text;html=1;align=left;verticalAlign=middle;whiteSpace=wrap;rounded=0;" vertex="1" parent="1">
          <mxGeometry x="340" y="440" width="190" height="100" as="geometry" />
        </mxCell>
        <mxCell id="bCO52bIQ9dE28dOcg5Y--49" value="Build" style="rounded=1;whiteSpace=wrap;html=1;" vertex="1" parent="1">
          <mxGeometry x="540" y="560" width="120" height="60" as="geometry" />
        </mxCell>
        <mxCell id="QvcRcpZz988IZ9j-JeaG-1" value="" style="edgeStyle=orthogonalEdgeStyle;rounded=0;orthogonalLoop=1;jettySize=auto;html=1;" edge="1" parent="1" source="bCO52bIQ9dE28dOcg5Y--51" target="bCO52bIQ9dE28dOcg5Y--52">
          <mxGeometry relative="1" as="geometry" />
        </mxCell>
        <mxCell id="bCO52bIQ9dE28dOcg5Y--51" value="Authorization&amp;nbsp;&lt;br&gt;(access token and username)" style="rounded=1;whiteSpace=wrap;html=1;" vertex="1" parent="1">
          <mxGeometry x="980" y="110" width="120" height="60" as="geometry" />
        </mxCell>
        <mxCell id="QvcRcpZz988IZ9j-JeaG-2" value="" style="edgeStyle=orthogonalEdgeStyle;rounded=0;orthogonalLoop=1;jettySize=auto;html=1;" edge="1" parent="1" source="bCO52bIQ9dE28dOcg5Y--52" target="bCO52bIQ9dE28dOcg5Y--53">
          <mxGeometry relative="1" as="geometry" />
        </mxCell>
        <mxCell id="bCO52bIQ9dE28dOcg5Y--52" value="Check project id in DB" style="rounded=1;whiteSpace=wrap;html=1;" vertex="1" parent="1">
          <mxGeometry x="1170" y="110" width="120" height="60" as="geometry" />
        </mxCell>
        <mxCell id="QvcRcpZz988IZ9j-JeaG-3" value="" style="edgeStyle=orthogonalEdgeStyle;rounded=0;orthogonalLoop=1;jettySize=auto;html=1;" edge="1" parent="1" source="bCO52bIQ9dE28dOcg5Y--53">
          <mxGeometry relative="1" as="geometry">
            <mxPoint x="1580" y="220" as="targetPoint" />
          </mxGeometry>
        </mxCell>
        <mxCell id="bCO52bIQ9dE28dOcg5Y--53" value="Generate Build ID" style="rounded=1;whiteSpace=wrap;html=1;" vertex="1" parent="1">
          <mxGeometry x="1340" y="110" width="120" height="60" as="geometry" />
        </mxCell>
        <mxCell id="bCO52bIQ9dE28dOcg5Y--60" value="" style="edgeStyle=orthogonalEdgeStyle;rounded=0;orthogonalLoop=1;jettySize=auto;html=1;" edge="1" parent="1" target="bCO52bIQ9dE28dOcg5Y--59">
          <mxGeometry relative="1" as="geometry">
            <mxPoint x="1580" y="195" as="sourcePoint" />
          </mxGeometry>
        </mxCell>
        <mxCell id="bCO52bIQ9dE28dOcg5Y--62" value="" style="edgeStyle=orthogonalEdgeStyle;rounded=0;orthogonalLoop=1;jettySize=auto;html=1;" edge="1" parent="1" source="bCO52bIQ9dE28dOcg5Y--59" target="bCO52bIQ9dE28dOcg5Y--61">
          <mxGeometry relative="1" as="geometry" />
        </mxCell>
        <mxCell id="bCO52bIQ9dE28dOcg5Y--67" style="edgeStyle=orthogonalEdgeStyle;rounded=0;orthogonalLoop=1;jettySize=auto;html=1;entryX=0.5;entryY=0;entryDx=0;entryDy=0;" edge="1" parent="1" source="bCO52bIQ9dE28dOcg5Y--59" target="bCO52bIQ9dE28dOcg5Y--66">
          <mxGeometry relative="1" as="geometry" />
        </mxCell>
        <mxCell id="bCO52bIQ9dE28dOcg5Y--59" value="Check app id in DB" style="rounded=1;whiteSpace=wrap;html=1;" vertex="1" parent="1">
          <mxGeometry x="1520" y="240" width="120" height="60" as="geometry" />
        </mxCell>
        <mxCell id="bCO52bIQ9dE28dOcg5Y--61" value="404 app id not found" style="text;html=1;align=center;verticalAlign=middle;whiteSpace=wrap;rounded=0;" vertex="1" parent="1">
          <mxGeometry x="1380" y="180" width="60" height="30" as="geometry" />
        </mxCell>
        <mxCell id="bCO52bIQ9dE28dOcg5Y--63" value="403 app id does not belong to project id" style="text;html=1;align=center;verticalAlign=middle;whiteSpace=wrap;rounded=0;" vertex="1" parent="1">
          <mxGeometry x="1370" y="320" width="110" height="30" as="geometry" />
        </mxCell>
        <mxCell id="bCO52bIQ9dE28dOcg5Y--65" style="edgeStyle=orthogonalEdgeStyle;rounded=0;orthogonalLoop=1;jettySize=auto;html=1;entryX=0.691;entryY=-0.167;entryDx=0;entryDy=0;entryPerimeter=0;" edge="1" parent="1" source="bCO52bIQ9dE28dOcg5Y--59" target="bCO52bIQ9dE28dOcg5Y--63">
          <mxGeometry relative="1" as="geometry" />
        </mxCell>
        <mxCell id="bCO52bIQ9dE28dOcg5Y--69" value="" style="edgeStyle=orthogonalEdgeStyle;rounded=0;orthogonalLoop=1;jettySize=auto;html=1;" edge="1" parent="1" source="bCO52bIQ9dE28dOcg5Y--66" target="bCO52bIQ9dE28dOcg5Y--68">
          <mxGeometry relative="1" as="geometry" />
        </mxCell>
        <mxCell id="bCO52bIQ9dE28dOcg5Y--70" value="Yes" style="edgeLabel;html=1;align=center;verticalAlign=middle;resizable=0;points=[];" vertex="1" connectable="0" parent="bCO52bIQ9dE28dOcg5Y--69">
          <mxGeometry x="-0.2727" y="-1" relative="1" as="geometry">
            <mxPoint as="offset" />
          </mxGeometry>
        </mxCell>
        <mxCell id="bCO52bIQ9dE28dOcg5Y--73" value="" style="edgeStyle=orthogonalEdgeStyle;rounded=0;orthogonalLoop=1;jettySize=auto;html=1;" edge="1" parent="1" source="bCO52bIQ9dE28dOcg5Y--66" target="QvcRcpZz988IZ9j-JeaG-5">
          <mxGeometry relative="1" as="geometry">
            <mxPoint x="1580" y="470" as="targetPoint" />
          </mxGeometry>
        </mxCell>
        <mxCell id="bCO52bIQ9dE28dOcg5Y--66" value="app.status!=staged" style="rhombus;whiteSpace=wrap;html=1;" vertex="1" parent="1">
          <mxGeometry x="1505" y="360" width="150" height="80" as="geometry" />
        </mxCell>
        <mxCell id="bCO52bIQ9dE28dOcg5Y--68" value="409 App is not in staged state" style="text;html=1;align=center;verticalAlign=middle;whiteSpace=wrap;rounded=0;" vertex="1" parent="1">
          <mxGeometry x="1350" y="385" width="100" height="30" as="geometry" />
        </mxCell>
        <mxCell id="QvcRcpZz988IZ9j-JeaG-4" value="" style="endArrow=none;dashed=1;html=1;dashPattern=1 3;strokeWidth=2;rounded=0;exitX=1;exitY=0.5;exitDx=0;exitDy=0;entryX=0;entryY=0.5;entryDx=0;entryDy=0;" edge="1" parent="1" source="bCO52bIQ9dE28dOcg5Y--49" target="bCO52bIQ9dE28dOcg5Y--51">
          <mxGeometry width="50" height="50" relative="1" as="geometry">
            <mxPoint x="820" y="530" as="sourcePoint" />
            <mxPoint x="850" y="140" as="targetPoint" />
            <Array as="points">
              <mxPoint x="850" y="590" />
              <mxPoint x="850" y="140" />
            </Array>
          </mxGeometry>
        </mxCell>
        <mxCell id="QvcRcpZz988IZ9j-JeaG-227" value="" style="edgeStyle=orthogonalEdgeStyle;rounded=0;orthogonalLoop=1;jettySize=auto;html=1;" edge="1" parent="1" source="QvcRcpZz988IZ9j-JeaG-5" target="QvcRcpZz988IZ9j-JeaG-25">
          <mxGeometry relative="1" as="geometry" />
        </mxCell>
        <mxCell id="QvcRcpZz988IZ9j-JeaG-5" value="Extract secret from App state" style="rounded=1;whiteSpace=wrap;html=1;" vertex="1" parent="1">
          <mxGeometry x="1610" y="580" width="120" height="60" as="geometry" />
        </mxCell>
        <mxCell id="QvcRcpZz988IZ9j-JeaG-25" value="Build jenkins trigger url with app ID" style="rounded=1;whiteSpace=wrap;html=1;" vertex="1" parent="1">
          <mxGeometry x="1772" y="490" width="120" height="60" as="geometry" />
        </mxCell>
        <mxCell id="QvcRcpZz988IZ9j-JeaG-29" value="Trigger jenkins job using URL" style="rounded=1;whiteSpace=wrap;html=1;" vertex="1" parent="1">
          <mxGeometry x="1772" y="355" width="120" height="60" as="geometry" />
        </mxCell>
        <mxCell id="QvcRcpZz988IZ9j-JeaG-31" style="edgeStyle=orthogonalEdgeStyle;rounded=0;orthogonalLoop=1;jettySize=auto;html=1;entryX=0.175;entryY=1.034;entryDx=0;entryDy=0;entryPerimeter=0;" edge="1" parent="1" source="QvcRcpZz988IZ9j-JeaG-25" target="QvcRcpZz988IZ9j-JeaG-29">
          <mxGeometry relative="1" as="geometry" />
        </mxCell>
        <mxCell id="QvcRcpZz988IZ9j-JeaG-51" value="" style="edgeStyle=orthogonalEdgeStyle;rounded=0;orthogonalLoop=1;jettySize=auto;html=1;" edge="1" parent="1" source="QvcRcpZz988IZ9j-JeaG-49" target="QvcRcpZz988IZ9j-JeaG-50">
          <mxGeometry relative="1" as="geometry">
            <Array as="points">
              <mxPoint x="2320" y="120" />
              <mxPoint x="2320" y="120" />
            </Array>
          </mxGeometry>
        </mxCell>
        <mxCell id="QvcRcpZz988IZ9j-JeaG-59" value="" style="edgeStyle=orthogonalEdgeStyle;rounded=0;orthogonalLoop=1;jettySize=auto;html=1;" edge="1" parent="1" source="QvcRcpZz988IZ9j-JeaG-49" target="QvcRcpZz988IZ9j-JeaG-52">
          <mxGeometry relative="1" as="geometry" />
        </mxCell>
        <mxCell id="QvcRcpZz988IZ9j-JeaG-49" value="Static Analysis of code with Pylint. Saves result as pylint_results.json" style="rounded=1;whiteSpace=wrap;html=1;" vertex="1" parent="1">
          <mxGeometry x="2260" y="130" width="120" height="60" as="geometry" />
        </mxCell>
        <mxCell id="QvcRcpZz988IZ9j-JeaG-50" value="Fails the build if pylint reports issue" style="text;html=1;align=center;verticalAlign=middle;whiteSpace=wrap;rounded=0;" vertex="1" parent="1">
          <mxGeometry x="2280" y="70" width="100" height="30" as="geometry" />
        </mxCell>
        <mxCell id="QvcRcpZz988IZ9j-JeaG-54" value="" style="edgeStyle=orthogonalEdgeStyle;rounded=0;orthogonalLoop=1;jettySize=auto;html=1;" edge="1" parent="1" source="QvcRcpZz988IZ9j-JeaG-52" target="QvcRcpZz988IZ9j-JeaG-53">
          <mxGeometry relative="1" as="geometry" />
        </mxCell>
        <mxCell id="QvcRcpZz988IZ9j-JeaG-62" value="" style="edgeStyle=orthogonalEdgeStyle;rounded=0;orthogonalLoop=1;jettySize=auto;html=1;" edge="1" parent="1" source="QvcRcpZz988IZ9j-JeaG-52" target="QvcRcpZz988IZ9j-JeaG-60">
          <mxGeometry relative="1" as="geometry" />
        </mxCell>
        <mxCell id="QvcRcpZz988IZ9j-JeaG-52" value="Security test with bandit. Saves result as bandit_results.json" style="rounded=1;whiteSpace=wrap;html=1;" vertex="1" parent="1">
          <mxGeometry x="2481" y="120" width="120" height="60" as="geometry" />
        </mxCell>
        <mxCell id="QvcRcpZz988IZ9j-JeaG-53" value="Fails build if vulnerbitlites found" style="text;html=1;align=center;verticalAlign=middle;whiteSpace=wrap;rounded=0;" vertex="1" parent="1">
          <mxGeometry x="2650" y="80" width="140" height="30" as="geometry" />
        </mxCell>
        <mxCell id="QvcRcpZz988IZ9j-JeaG-67" value="" style="edgeStyle=orthogonalEdgeStyle;rounded=0;orthogonalLoop=1;jettySize=auto;html=1;" edge="1" parent="1" source="QvcRcpZz988IZ9j-JeaG-60" target="QvcRcpZz988IZ9j-JeaG-63">
          <mxGeometry relative="1" as="geometry" />
        </mxCell>
        <mxCell id="QvcRcpZz988IZ9j-JeaG-60" value="Build .whl files" style="rounded=1;whiteSpace=wrap;html=1;" vertex="1" parent="1">
          <mxGeometry x="2481" y="210" width="120" height="60" as="geometry" />
        </mxCell>
        <mxCell id="QvcRcpZz988IZ9j-JeaG-61" value="Clean build by removing dist/ and build/" style="text;html=1;align=center;verticalAlign=middle;whiteSpace=wrap;rounded=0;" vertex="1" parent="1">
          <mxGeometry x="2435" y="290" width="150" height="30" as="geometry" />
        </mxCell>
        <mxCell id="QvcRcpZz988IZ9j-JeaG-68" style="edgeStyle=orthogonalEdgeStyle;rounded=0;orthogonalLoop=1;jettySize=auto;html=1;entryX=0.351;entryY=0.417;entryDx=0;entryDy=0;entryPerimeter=0;" edge="1" parent="1" source="QvcRcpZz988IZ9j-JeaG-63" target="QvcRcpZz988IZ9j-JeaG-71">
          <mxGeometry relative="1" as="geometry">
            <mxPoint x="2320" y="385" as="targetPoint" />
            <Array as="points">
              <mxPoint x="2320" y="313" />
              <mxPoint x="2321" y="313" />
              <mxPoint x="2321" y="420" />
            </Array>
          </mxGeometry>
        </mxCell>
        <mxCell id="QvcRcpZz988IZ9j-JeaG-63" value="Deliver and upload .whl package via data plane assist service" style="rounded=1;whiteSpace=wrap;html=1;" vertex="1" parent="1">
          <mxGeometry x="2250" y="210" width="120" height="60" as="geometry" />
        </mxCell>
        <mxCell id="QvcRcpZz988IZ9j-JeaG-70" value="" style="edgeStyle=orthogonalEdgeStyle;rounded=0;orthogonalLoop=1;jettySize=auto;html=1;" edge="1" parent="1" source="QvcRcpZz988IZ9j-JeaG-65" target="QvcRcpZz988IZ9j-JeaG-66">
          <mxGeometry relative="1" as="geometry" />
        </mxCell>
        <mxCell id="QvcRcpZz988IZ9j-JeaG-65" value="Sync artifacts to s3&amp;nbsp;&lt;div&gt;Replace new build artifacts&lt;/div&gt;" style="rounded=1;whiteSpace=wrap;html=1;" vertex="1" parent="1">
          <mxGeometry x="2435" y="390" width="120" height="60" as="geometry" />
        </mxCell>
        <mxCell id="QvcRcpZz988IZ9j-JeaG-66" value="Update the project service with build details." style="rounded=1;whiteSpace=wrap;html=1;" vertex="1" parent="1">
          <mxGeometry x="2590" y="385" width="120" height="60" as="geometry" />
        </mxCell>
        <mxCell id="QvcRcpZz988IZ9j-JeaG-72" value="Post build process" style="text;html=1;align=center;verticalAlign=middle;whiteSpace=wrap;rounded=0;" vertex="1" parent="1">
          <mxGeometry x="2220" y="340" width="110" height="30" as="geometry" />
        </mxCell>
        <mxCell id="QvcRcpZz988IZ9j-JeaG-74" value="Build process" style="text;html=1;align=center;verticalAlign=middle;whiteSpace=wrap;rounded=0;" vertex="1" parent="1">
          <mxGeometry x="2220" y="30" width="100" height="30" as="geometry" />
        </mxCell>
        <mxCell id="QvcRcpZz988IZ9j-JeaG-78" value="Jenkins (App staging process)" style="text;html=1;align=center;verticalAlign=middle;whiteSpace=wrap;rounded=0;" vertex="1" parent="1">
          <mxGeometry x="2190" y="-10" width="110" height="30" as="geometry" />
        </mxCell>
        <mxCell id="QvcRcpZz988IZ9j-JeaG-81" value="Frontend" style="text;html=1;align=center;verticalAlign=middle;whiteSpace=wrap;rounded=0;" vertex="1" parent="1">
          <mxGeometry y="-50" width="60" height="30" as="geometry" />
        </mxCell>
        <mxCell id="QvcRcpZz988IZ9j-JeaG-82" value="Project Admin" style="text;html=1;align=center;verticalAlign=middle;whiteSpace=wrap;rounded=0;" vertex="1" parent="1">
          <mxGeometry x="960" width="100" height="30" as="geometry" />
        </mxCell>
        <mxCell id="QvcRcpZz988IZ9j-JeaG-84" value="Launch App" style="rounded=1;whiteSpace=wrap;html=1;" vertex="1" parent="1">
          <mxGeometry x="1185.25" y="930" width="120" height="60" as="geometry" />
        </mxCell>
        <mxCell id="QvcRcpZz988IZ9j-JeaG-87" value="" style="edgeStyle=orthogonalEdgeStyle;rounded=0;orthogonalLoop=1;jettySize=auto;html=1;" edge="1" parent="1" source="QvcRcpZz988IZ9j-JeaG-85" target="QvcRcpZz988IZ9j-JeaG-86">
          <mxGeometry relative="1" as="geometry" />
        </mxCell>
        <mxCell id="QvcRcpZz988IZ9j-JeaG-88" value="Failure" style="edgeLabel;html=1;align=center;verticalAlign=middle;resizable=0;points=[];" connectable="0" vertex="1" parent="QvcRcpZz988IZ9j-JeaG-87">
          <mxGeometry x="-0.4032" y="-2" relative="1" as="geometry">
            <mxPoint as="offset" />
          </mxGeometry>
        </mxCell>
        <mxCell id="QvcRcpZz988IZ9j-JeaG-103" value="" style="edgeStyle=orthogonalEdgeStyle;rounded=0;orthogonalLoop=1;jettySize=auto;html=1;entryX=0;entryY=0.5;entryDx=0;entryDy=0;" edge="1" parent="1" source="QvcRcpZz988IZ9j-JeaG-85" target="QvcRcpZz988IZ9j-JeaG-106">
          <mxGeometry relative="1" as="geometry">
            <mxPoint x="1528.75" y="960" as="targetPoint" />
          </mxGeometry>
        </mxCell>
        <mxCell id="QvcRcpZz988IZ9j-JeaG-85" value="Authorization&lt;div&gt;(Token and username)&lt;/div&gt;" style="rounded=1;whiteSpace=wrap;html=1;" vertex="1" parent="1">
          <mxGeometry x="1466.25" y="930" width="139" height="60" as="geometry" />
        </mxCell>
        <mxCell id="QvcRcpZz988IZ9j-JeaG-86" value="Raise Respective status code when failed" style="text;html=1;align=center;verticalAlign=middle;whiteSpace=wrap;rounded=0;" vertex="1" parent="1">
          <mxGeometry x="1495.25" y="840" width="100" height="30" as="geometry" />
        </mxCell>
        <mxCell id="QvcRcpZz988IZ9j-JeaG-102" value="" style="endArrow=none;dashed=1;html=1;dashPattern=1 3;strokeWidth=2;rounded=0;exitX=1;exitY=0.5;exitDx=0;exitDy=0;" edge="1" parent="1" source="QvcRcpZz988IZ9j-JeaG-84" target="QvcRcpZz988IZ9j-JeaG-85">
          <mxGeometry width="50" height="50" relative="1" as="geometry">
            <mxPoint x="1545.25" y="1130" as="sourcePoint" />
            <mxPoint x="1595.25" y="1080" as="targetPoint" />
            <Array as="points">
              <mxPoint x="1385.25" y="960" />
            </Array>
          </mxGeometry>
        </mxCell>
        <mxCell id="QvcRcpZz988IZ9j-JeaG-108" value="" style="edgeStyle=orthogonalEdgeStyle;rounded=0;orthogonalLoop=1;jettySize=auto;html=1;" edge="1" parent="1" source="QvcRcpZz988IZ9j-JeaG-106" target="QvcRcpZz988IZ9j-JeaG-107">
          <mxGeometry relative="1" as="geometry" />
        </mxCell>
        <mxCell id="QvcRcpZz988IZ9j-JeaG-109" value="True" style="edgeLabel;html=1;align=center;verticalAlign=middle;resizable=0;points=[];" connectable="0" vertex="1" parent="QvcRcpZz988IZ9j-JeaG-108">
          <mxGeometry x="-0.4663" y="1" relative="1" as="geometry">
            <mxPoint as="offset" />
          </mxGeometry>
        </mxCell>
        <mxCell id="QvcRcpZz988IZ9j-JeaG-113" value="" style="edgeStyle=orthogonalEdgeStyle;rounded=0;orthogonalLoop=1;jettySize=auto;html=1;" edge="1" parent="1" source="QvcRcpZz988IZ9j-JeaG-106" target="QvcRcpZz988IZ9j-JeaG-111">
          <mxGeometry relative="1" as="geometry" />
        </mxCell>
        <mxCell id="QvcRcpZz988IZ9j-JeaG-106" value="build[build_status] !=&quot;success&quot;" style="rhombus;whiteSpace=wrap;html=1;" vertex="1" parent="1">
          <mxGeometry x="1648.75" y="920" width="230" height="80" as="geometry" />
        </mxCell>
        <mxCell id="QvcRcpZz988IZ9j-JeaG-107" value="400 Can&#39;t deploy the app" style="text;html=1;align=center;verticalAlign=middle;whiteSpace=wrap;rounded=0;" vertex="1" parent="1">
          <mxGeometry x="1708.75" y="1050" width="110" height="30" as="geometry" />
        </mxCell>
        <mxCell id="QvcRcpZz988IZ9j-JeaG-114" value="" style="edgeStyle=orthogonalEdgeStyle;rounded=0;orthogonalLoop=1;jettySize=auto;html=1;" edge="1" parent="1" source="QvcRcpZz988IZ9j-JeaG-111" target="QvcRcpZz988IZ9j-JeaG-112">
          <mxGeometry relative="1" as="geometry" />
        </mxCell>
        <mxCell id="QvcRcpZz988IZ9j-JeaG-111" value="Creating the service name for the particular app" style="rounded=1;whiteSpace=wrap;html=1;" vertex="1" parent="1">
          <mxGeometry x="1938.75" y="930" width="210" height="60" as="geometry" />
        </mxCell>
        <mxCell id="QvcRcpZz988IZ9j-JeaG-116" value="" style="edgeStyle=orthogonalEdgeStyle;rounded=0;orthogonalLoop=1;jettySize=auto;html=1;" edge="1" parent="1" source="QvcRcpZz988IZ9j-JeaG-112" target="QvcRcpZz988IZ9j-JeaG-115">
          <mxGeometry relative="1" as="geometry" />
        </mxCell>
        <mxCell id="QvcRcpZz988IZ9j-JeaG-112" value="Get deployment for particular project and app" style="rounded=1;whiteSpace=wrap;html=1;" vertex="1" parent="1">
          <mxGeometry x="1983.75" y="1050" width="120" height="60" as="geometry" />
        </mxCell>
        <mxCell id="QvcRcpZz988IZ9j-JeaG-118" style="edgeStyle=orthogonalEdgeStyle;rounded=0;orthogonalLoop=1;jettySize=auto;html=1;entryX=1;entryY=0.5;entryDx=0;entryDy=0;" edge="1" parent="1" source="QvcRcpZz988IZ9j-JeaG-115" target="QvcRcpZz988IZ9j-JeaG-117">
          <mxGeometry relative="1" as="geometry" />
        </mxCell>
        <mxCell id="QvcRcpZz988IZ9j-JeaG-119" value="True" style="edgeLabel;html=1;align=center;verticalAlign=middle;resizable=0;points=[];" connectable="0" vertex="1" parent="QvcRcpZz988IZ9j-JeaG-118">
          <mxGeometry x="-0.3309" y="1" relative="1" as="geometry">
            <mxPoint as="offset" />
          </mxGeometry>
        </mxCell>
        <mxCell id="QvcRcpZz988IZ9j-JeaG-135" value="" style="edgeStyle=orthogonalEdgeStyle;rounded=0;orthogonalLoop=1;jettySize=auto;html=1;" edge="1" parent="1" source="QvcRcpZz988IZ9j-JeaG-115" target="QvcRcpZz988IZ9j-JeaG-120">
          <mxGeometry relative="1" as="geometry" />
        </mxCell>
        <mxCell id="QvcRcpZz988IZ9j-JeaG-115" value="deployment is None?" style="rhombus;whiteSpace=wrap;html=1;" vertex="1" parent="1">
          <mxGeometry x="1898.75" y="1160" width="280" height="80" as="geometry" />
        </mxCell>
        <mxCell id="QvcRcpZz988IZ9j-JeaG-117" value="Add deployment to DB with project_id, build_id and app_id" style="rounded=1;whiteSpace=wrap;html=1;" vertex="1" parent="1">
          <mxGeometry x="1648.75" y="1170" width="120" height="60" as="geometry" />
        </mxCell>
        <mxCell id="QvcRcpZz988IZ9j-JeaG-120" value="Get current deployment&amp;nbsp;" style="rounded=1;whiteSpace=wrap;html=1;" vertex="1" parent="1">
          <mxGeometry x="1968.75" y="1290" width="120" height="60" as="geometry" />
        </mxCell>
        <mxCell id="QvcRcpZz988IZ9j-JeaG-159" value="" style="edgeStyle=orthogonalEdgeStyle;rounded=0;orthogonalLoop=1;jettySize=auto;html=1;" edge="1" parent="1" target="QvcRcpZz988IZ9j-JeaG-140">
          <mxGeometry relative="1" as="geometry">
            <mxPoint x="2030.75" y="1350" as="sourcePoint" />
          </mxGeometry>
        </mxCell>
        <mxCell id="QvcRcpZz988IZ9j-JeaG-142" value="" style="edgeStyle=orthogonalEdgeStyle;rounded=0;orthogonalLoop=1;jettySize=auto;html=1;" edge="1" parent="1" source="QvcRcpZz988IZ9j-JeaG-140" target="QvcRcpZz988IZ9j-JeaG-141">
          <mxGeometry relative="1" as="geometry" />
        </mxCell>
        <mxCell id="QvcRcpZz988IZ9j-JeaG-140" value="if deployment?" style="rhombus;whiteSpace=wrap;html=1;" vertex="1" parent="1">
          <mxGeometry x="1900.75" y="1390" width="260" height="80" as="geometry" />
        </mxCell>
        <mxCell id="QvcRcpZz988IZ9j-JeaG-226" value="" style="edgeStyle=orthogonalEdgeStyle;rounded=0;orthogonalLoop=1;jettySize=auto;html=1;" edge="1" parent="1" source="QvcRcpZz988IZ9j-JeaG-141" target="QvcRcpZz988IZ9j-JeaG-216">
          <mxGeometry relative="1" as="geometry" />
        </mxCell>
        <mxCell id="QvcRcpZz988IZ9j-JeaG-141" value="Check deployment status" style="rounded=1;whiteSpace=wrap;html=1;" vertex="1" parent="1">
          <mxGeometry x="1703.75" y="1400" width="120" height="60" as="geometry" />
        </mxCell>
        <mxCell id="QvcRcpZz988IZ9j-JeaG-218" value="" style="edgeStyle=orthogonalEdgeStyle;rounded=0;orthogonalLoop=1;jettySize=auto;html=1;" edge="1" parent="1" target="QvcRcpZz988IZ9j-JeaG-216">
          <mxGeometry relative="1" as="geometry">
            <mxPoint x="1763.75" y="1470" as="sourcePoint" />
          </mxGeometry>
        </mxCell>
        <mxCell id="QvcRcpZz988IZ9j-JeaG-219" value="" style="edgeStyle=orthogonalEdgeStyle;rounded=0;orthogonalLoop=1;jettySize=auto;html=1;" edge="1" parent="1" source="QvcRcpZz988IZ9j-JeaG-216" target="QvcRcpZz988IZ9j-JeaG-217">
          <mxGeometry relative="1" as="geometry" />
        </mxCell>
        <mxCell id="QvcRcpZz988IZ9j-JeaG-216" value="Update the project deployment&amp;nbsp; status in project admin" style="rounded=1;whiteSpace=wrap;html=1;" vertex="1" parent="1">
          <mxGeometry x="1703.75" y="1510" width="120" height="60" as="geometry" />
        </mxCell>
        <mxCell id="QvcRcpZz988IZ9j-JeaG-217" value="Return deployment status" style="rounded=1;whiteSpace=wrap;html=1;" vertex="1" parent="1">
          <mxGeometry x="1703.75" y="1630" width="120" height="60" as="geometry" />
        </mxCell>
        <mxCell id="QvcRcpZz988IZ9j-JeaG-223" value="Frontend" style="text;html=1;align=center;verticalAlign=middle;whiteSpace=wrap;rounded=0;" vertex="1" parent="1">
          <mxGeometry x="1178.25" y="900" width="60" height="30" as="geometry" />
        </mxCell>
        <mxCell id="QvcRcpZz988IZ9j-JeaG-225" value="&lt;h1 style=&quot;margin-top: 0px;&quot;&gt;Security Feature&lt;/h1&gt;&lt;p&gt;- Fine grained Access Token based authorization and authentication&lt;/p&gt;" style="text;html=1;whiteSpace=wrap;overflow=hidden;rounded=0;" vertex="1" parent="1">
          <mxGeometry y="800" width="200" height="230" as="geometry" />
        </mxCell>
        <mxCell id="QvcRcpZz988IZ9j-JeaG-229" value="" style="endArrow=none;dashed=1;html=1;dashPattern=1 3;strokeWidth=2;rounded=0;entryX=-0.004;entryY=0.16;entryDx=0;entryDy=0;entryPerimeter=0;" edge="1" parent="1" target="QvcRcpZz988IZ9j-JeaG-77">
          <mxGeometry width="50" height="50" relative="1" as="geometry">
            <mxPoint x="1810" y="350" as="sourcePoint" />
            <mxPoint x="1870" y="305" as="targetPoint" />
            <Array as="points">
              <mxPoint x="1810" y="100" />
            </Array>
          </mxGeometry>
        </mxCell>
      </root>
    </mxGraphModel>
  </diagram>
</mxfile>
